<svg width="638" height="129" viewBox="0 0 638 129" fill="none" xmlns="http://www.w3.org/2000/svg">
<rect x="4" y="98.815" width="634" height="30" fill="#D9D9D9"/>
<path d="M87.1875 38.6875C87.1875 43.9792 86.1042 48.8333 83.9375 53.25C81.8125 57.6667 78.4167 61.25 73.75 64C69.0833 66.75 63.2292 68.125 56.1875 68.125H38.25L33.8125 99H11.5L24.1875 12.375H56.6875C67.3542 12.375 75.1042 14.8542 79.9375 19.8125C84.7708 24.7708 87.1875 31.0625 87.1875 38.6875ZM64.25 39.875C64.25 37.0417 63.5833 34.5 62.25 32.25C60.9583 30 58.9792 28.2292 56.3125 26.9375C53.6458 25.6458 50.4583 25 46.75 25H44.6875L40.1875 55.5H46.375C52.0417 55.5 56.4375 54.2292 59.5625 51.6875C62.6875 49.1042 64.25 45.1667 64.25 39.875ZM172.08 50.75C172.08 57.7917 170.913 64.3125 168.58 70.3125C166.288 76.3125 162.934 81.5625 158.518 86.0625C154.101 90.5208 148.83 93.9792 142.705 96.4375C136.58 98.8958 129.726 100.125 122.143 100.125C115.268 100.125 108.497 98.8125 101.83 96.1875C95.205 93.5625 89.7258 89.2917 85.3925 83.375C81.0592 77.4167 78.8925 69.875 78.8925 60.75C78.8925 52.8333 80.2675 45.75 83.0175 39.5C85.7675 33.25 89.5383 28.0208 94.33 23.8125C99.1217 19.6042 104.538 16.4583 110.58 14.375C116.622 12.25 123.038 11.1875 129.83 11.1875C137.83 11.1875 145.038 12.7917 151.455 16C157.913 19.1667 162.955 23.75 166.58 29.75C170.247 35.75 172.08 42.75 172.08 50.75ZM148.893 52.25C148.893 47.9167 148.038 44.125 146.33 40.875C144.622 37.625 142.247 35.1042 139.205 33.3125C136.205 31.5208 132.726 30.625 128.768 30.625C123.226 30.625 118.413 32.1042 114.33 35.0625C110.288 37.9792 107.226 41.6875 105.143 46.1875C103.059 50.6458 102.018 55.1458 102.018 59.6875C102.018 65.5208 103.83 70.4792 107.455 74.5625C111.122 78.6458 116.143 80.6875 122.518 80.6875C126.559 80.6875 130.205 79.9167 133.455 78.375C136.705 76.8333 139.497 74.7083 141.83 72C144.205 69.25 145.976 66.1875 147.143 62.8125C148.309 59.3958 148.893 55.875 148.893 52.25ZM242.022 99H217.835L209.21 80.9375C206.668 75.4792 204.46 71.3958 202.585 68.6875C200.71 65.9375 199.064 64.25 197.647 63.625C196.231 62.9583 194.335 62.625 191.96 62.625H188.647L183.147 99H161.21L173.772 12.375H207.585C219.877 12.375 228.21 15.0833 232.585 20.5C237.002 25.9167 239.21 31.7708 239.21 38.0625C239.21 44.6875 237.377 49.8542 233.71 53.5625C230.085 57.2292 225.002 59.5 218.46 60.375C221.793 62.2917 224.356 64.5417 226.147 67.125C227.981 69.7083 230.147 73.7292 232.647 79.1875L242.022 99ZM216.022 37.4375C216.022 34.1042 214.793 31.2083 212.335 28.75C209.918 26.25 205.002 25 197.585 25H194.147L190.522 50H199.272C205.439 50 209.772 48.7083 212.272 46.125C214.772 43.5 216.022 40.6042 216.022 37.4375ZM312.28 12.375L309.717 30H281.717L271.342 99H249.342L259.53 30H231.655L234.342 12.375H312.28ZM367.525 12.375L365.212 27.8125H337.587L334.775 46.625H358.15L355.9 62.125H332.462L327.087 99H304.9L317.587 12.375H367.525ZM449.415 50.75C449.415 57.7917 448.248 64.3125 445.915 70.3125C443.623 76.3125 440.269 81.5625 435.853 86.0625C431.436 90.5208 426.165 93.9792 420.04 96.4375C413.915 98.8958 407.061 100.125 399.478 100.125C392.603 100.125 385.832 98.8125 379.165 96.1875C372.54 93.5625 367.061 89.2917 362.728 83.375C358.394 77.4167 356.228 69.875 356.228 60.75C356.228 52.8333 357.603 45.75 360.353 39.5C363.103 33.25 366.873 28.0208 371.665 23.8125C376.457 19.6042 381.873 16.4583 387.915 14.375C393.957 12.25 400.373 11.1875 407.165 11.1875C415.165 11.1875 422.373 12.7917 428.79 16C435.248 19.1667 440.29 23.75 443.915 29.75C447.582 35.75 449.415 42.75 449.415 50.75ZM426.228 52.25C426.228 47.9167 425.373 44.125 423.665 40.875C421.957 37.625 419.582 35.1042 416.54 33.3125C413.54 31.5208 410.061 30.625 406.103 30.625C400.561 30.625 395.748 32.1042 391.665 35.0625C387.623 37.9792 384.561 41.6875 382.478 46.1875C380.394 50.6458 379.353 55.1458 379.353 59.6875C379.353 65.5208 381.165 70.4792 384.79 74.5625C388.457 78.6458 393.478 80.6875 399.853 80.6875C403.894 80.6875 407.54 79.9167 410.79 78.375C414.04 76.8333 416.832 74.7083 419.165 72C421.54 69.25 423.311 66.1875 424.478 62.8125C425.644 59.3958 426.228 55.875 426.228 52.25ZM506.385 83.5L504.135 99H442.385L454.948 12.375H477.26L466.885 83.5H506.385ZM542.33 12.375L529.392 99H507.205L520.017 12.375H542.33ZM628.425 50.75C628.425 57.7917 627.258 64.3125 624.925 70.3125C622.633 76.3125 619.279 81.5625 614.862 86.0625C610.446 90.5208 605.175 93.9792 599.05 96.4375C592.925 98.8958 586.071 100.125 578.487 100.125C571.612 100.125 564.842 98.8125 558.175 96.1875C551.55 93.5625 546.071 89.2917 541.737 83.375C537.404 77.4167 535.237 69.875 535.237 60.75C535.237 52.8333 536.612 45.75 539.362 39.5C542.112 33.25 545.883 28.0208 550.675 23.8125C555.467 19.6042 560.883 16.4583 566.925 14.375C572.967 12.25 579.383 11.1875 586.175 11.1875C594.175 11.1875 601.383 12.7917 607.8 16C614.258 19.1667 619.3 23.75 622.925 29.75C626.592 35.75 628.425 42.75 628.425 50.75ZM605.237 52.25C605.237 47.9167 604.383 44.125 602.675 40.875C600.967 37.625 598.592 35.1042 595.55 33.3125C592.55 31.5208 589.071 30.625 585.112 30.625C579.571 30.625 574.758 32.1042 570.675 35.0625C566.633 37.9792 563.571 41.6875 561.487 46.1875C559.404 50.6458 558.362 55.1458 558.362 59.6875C558.362 65.5208 560.175 70.4792 563.8 74.5625C567.467 78.6458 572.487 80.6875 578.862 80.6875C582.904 80.6875 586.55 79.9167 589.8 78.375C593.05 76.8333 595.842 74.7083 598.175 72C600.55 69.25 602.321 66.1875 603.487 62.8125C604.654 59.3958 605.237 55.875 605.237 52.25Z" fill="#1E1E1E"/>
<path d="M33.4688 102.987L43.1094 124.815H38.6562L36.3906 119.503H26.6875L24.5781 124.815H20.1562L29.1562 102.987H33.4688ZM27.9688 116.299H35.0156L31.3281 107.659L27.9688 116.299ZM87.9544 102.987V106.284H80.2044V124.815H75.9856V106.284H68.2356V102.987H87.9544ZM123.893 102.706C126.018 102.706 128.065 103.237 130.034 104.299V108.049C127.773 106.685 125.768 106.003 124.018 106.003C122.956 106.003 122.122 106.211 121.518 106.628C120.924 107.034 120.628 107.581 120.628 108.268C120.628 109.091 121.185 109.851 122.299 110.549C122.612 110.758 123.815 111.341 125.909 112.299C127.7 113.143 128.992 114.081 129.784 115.112C130.575 116.143 130.971 117.383 130.971 118.831C130.971 120.706 130.294 122.221 128.94 123.378C127.596 124.523 125.851 125.096 123.706 125.096C122.31 125.096 121.107 124.945 120.096 124.643C119.096 124.331 117.971 123.799 116.721 123.049V118.893C119.055 120.831 121.253 121.799 123.315 121.799C124.346 121.799 125.18 121.575 125.815 121.128C126.45 120.68 126.768 120.086 126.768 119.346C126.768 118.336 126.216 117.513 125.112 116.878C124.195 116.378 123.013 115.779 121.565 115.081C119.846 114.299 118.56 113.388 117.706 112.346C116.862 111.305 116.44 110.096 116.44 108.721C116.44 106.888 117.122 105.43 118.487 104.346C119.851 103.253 121.654 102.706 123.893 102.706ZM165.441 102.987V115.69C165.441 116.992 165.634 118.029 166.019 118.799C166.415 119.57 167.056 120.206 167.941 120.706C168.827 121.206 169.858 121.456 171.035 121.456C172.327 121.456 173.42 121.221 174.316 120.753C175.223 120.273 175.884 119.628 176.301 118.815C176.717 117.992 176.926 116.857 176.926 115.409V102.987H181.144V115.956C181.144 118.893 180.264 121.154 178.504 122.737C176.743 124.31 174.254 125.096 171.035 125.096C169.014 125.096 167.259 124.737 165.769 124.018C164.29 123.299 163.16 122.263 162.379 120.909C161.598 119.544 161.207 117.945 161.207 116.112V102.987H165.441ZM216.755 102.987V112.174H228.083V102.987H232.302V124.815H228.083V115.596H216.755V124.815H212.536V102.987H216.755ZM268.162 102.987V124.815H263.944V102.987H268.162ZM307.648 102.987C309.7 102.987 311.372 103.555 312.664 104.69C313.955 105.825 314.601 107.305 314.601 109.128C314.601 110.367 314.278 111.45 313.633 112.378C312.997 113.294 312.049 114.018 310.789 114.549C311.487 114.924 312.106 115.435 312.648 116.081C313.19 116.726 313.862 117.815 314.664 119.346C315.997 121.992 316.987 123.815 317.633 124.815H312.929C312.606 124.336 312.169 123.57 311.617 122.518C310.409 120.195 309.523 118.633 308.961 117.831C308.398 117.018 307.856 116.445 307.336 116.112C306.815 115.768 306.216 115.596 305.539 115.596H304.008V124.815H299.789V102.987H307.648ZM306.695 112.299C307.799 112.299 308.664 112.023 309.289 111.471C309.924 110.919 310.242 110.164 310.242 109.206C310.242 108.206 309.929 107.461 309.304 106.971C308.679 106.471 307.789 106.221 306.633 106.221H304.008V112.299H306.695ZM357.353 102.706C359.613 102.706 361.644 103.174 363.446 104.112C365.259 105.039 366.701 106.383 367.774 108.143C368.847 109.893 369.384 111.815 369.384 113.909C369.384 115.95 368.858 117.846 367.806 119.596C366.764 121.336 365.326 122.69 363.493 123.659C361.67 124.617 359.613 125.096 357.321 125.096C355.061 125.096 353.004 124.607 351.149 123.628C349.306 122.648 347.868 121.305 346.837 119.596C345.806 117.878 345.29 115.982 345.29 113.909C345.29 111.909 345.806 110.029 346.837 108.268C347.868 106.508 349.29 105.143 351.103 104.174C352.915 103.195 354.998 102.706 357.353 102.706ZM349.649 113.909C349.649 115.357 349.978 116.659 350.634 117.815C351.29 118.971 352.201 119.867 353.368 120.503C354.545 121.138 355.873 121.456 357.353 121.456C359.592 121.456 361.431 120.753 362.868 119.346C364.316 117.94 365.04 116.128 365.04 113.909C365.04 112.461 364.712 111.159 364.056 110.003C363.41 108.836 362.493 107.935 361.306 107.299C360.129 106.664 358.8 106.346 357.321 106.346C355.842 106.346 354.509 106.669 353.321 107.315C352.144 107.95 351.238 108.846 350.603 110.003C349.967 111.148 349.649 112.45 349.649 113.909ZM444.824 102.987L454.464 124.815H450.011L447.746 119.503H438.042L435.933 124.815H431.511L440.511 102.987H444.824ZM439.324 116.299H446.371L442.683 107.659L439.324 116.299ZM487.466 102.987L500.434 118.221V102.987H504.559V124.815H500.934L487.887 109.331V124.815H483.762V102.987H487.466ZM545.217 102.987C547.488 102.987 549.509 103.45 551.279 104.378C553.05 105.305 554.425 106.607 555.404 108.284C556.384 109.961 556.873 111.846 556.873 113.94C556.873 116.075 556.378 117.971 555.389 119.628C554.41 121.273 553.014 122.549 551.201 123.456C549.389 124.362 547.311 124.815 544.967 124.815H536.076V102.987H545.217ZM544.779 121.518C547.113 121.518 548.982 120.82 550.389 119.424C551.805 118.018 552.514 116.18 552.514 113.909C552.514 111.555 551.8 109.695 550.373 108.331C548.956 106.966 547.045 106.284 544.639 106.284H540.295V121.518H544.779ZM598.734 102.706C600.994 102.706 603.025 103.174 604.828 104.112C606.64 105.039 608.083 106.383 609.156 108.143C610.229 109.893 610.765 111.815 610.765 113.909C610.765 115.95 610.239 117.846 609.187 119.596C608.145 121.336 606.708 122.69 604.874 123.659C603.051 124.617 600.994 125.096 598.703 125.096C596.442 125.096 594.385 124.607 592.531 123.628C590.687 122.648 589.249 121.305 588.218 119.596C587.187 117.878 586.671 115.982 586.671 113.909C586.671 111.909 587.187 110.029 588.218 108.268C589.249 106.508 590.671 105.143 592.484 104.174C594.296 103.195 596.38 102.706 598.734 102.706ZM591.031 113.909C591.031 115.357 591.359 116.659 592.015 117.815C592.671 118.971 593.583 119.867 594.749 120.503C595.926 121.138 597.255 121.456 598.734 121.456C600.973 121.456 602.812 120.753 604.249 119.346C605.697 117.94 606.421 116.128 606.421 113.909C606.421 112.461 606.093 111.159 605.437 110.003C604.791 108.836 603.874 107.935 602.687 107.299C601.51 106.664 600.182 106.346 598.703 106.346C597.223 106.346 595.89 106.669 594.703 107.315C593.525 107.95 592.619 108.846 591.984 110.003C591.348 111.148 591.031 112.45 591.031 113.909Z" fill="#1E1E1E"/>
</svg>
